<svg id="Layer_1" data-name="Layer 1" xmlns="http://www.w3.org/2000/svg" viewBox="0 0 1310.35 102.71"><defs><style>.cls-1{fill:#fff;stroke:#fff;}</style></defs><path class="cls-1" d="M12,60.89c145-29,371-52,483-27s164,30,352-3,263-10,305,4,128-18,148-39" transform="translate(0.17 4.46)"/><path class="cls-1" d="M0,28.39c132,46.5,198-.5,334,4.5s172,45,348,43,168-40,305-47.5S1162,48,1227,76s65,23.88,76,15.88" transform="translate(0.17 4.46)"/><path class="cls-1" d="M0,73.89c229,11,251.42,5.25,338-13s127-36,245-25,136,6.47,237-8.76,111,.76,205,17.76,161.46-4.67,183.21-9.89S1300,37.89,1310,41.89" transform="translate(0.17 4.46)"/></svg>